# xmcd CD database file
#
# Track frame offsets:
#	150
#	16716
#	53051
#	92786
#	127606
#	153010
#	178346
#	216451
#	244922
#	265164
#
# Disc length: 3767 seconds
#
# Revision: 1
# Processed by: cddbd v1.5.2PL0 Copyright (c) Steve Scherf et al.
# Submitted via: CDex 1.51
#
DISCID=7d0eb50a
DTITLE=Pet Shop Boys - Minimal (Remix Promo Single)
DYEAR=2006
DGENRE=Pop
TTITLE0=Minimal (Radio Edit)
TTITLE1=Minimal (Tocadisco's Sundays At Space Mix)
TTITLE2=Minimal (M Factor Mix)
TTITLE3=Minimal (M Factor Dub)
TTITLE4=Minimal (TIGA's M-I-N-M-A-L Remix)
TTITLE5=Minimal (TIGA's M-I-N-M-A-L Dub)
TTITLE6=Minimal (Superchumbo Light and Shade Dub)
TTITLE7=Minimal (Telex Hell Remix)
TTITLE8=Minimal (Telex Heaven Remix)
TTITLE9=In Private (Tomcraft 7" Mix)
EXTD=YEAR: 2006
EXTT0=
EXTT1=
EXTT2=
EXTT3=
EXTT4=
EXTT5=
EXTT6=
EXTT7=
EXTT8=
EXTT9=
PLAYORDER=
